<svg width="23" height="23" xmlns="http://www.w3.org/2000/svg">
 <defs>
  <clipPath id="clip0_81403_2121">
   <rect id="svg_1" fill="white" height="22" width="130"/>
  </clipPath>
 </defs>
 <g>
  <title>background</title>
  <rect fill="none" id="canvas_background" height="25" width="25" y="-1" x="-1"/>
 </g>
 <g>
  <title>Layer 1</title>
  <g id="svg_2" clip-path="url(#clip0_81403_2121)">
   <path id="svg_9" fill="#FF5A30" d="m10.131976,10.234008l-6.2,-8.1c-0.4,-0.4 -0.9,-0.6 -1.4,-0.6c-0.5,0 -1,0.2 -1.4,0.6c-0.7,0.8 -0.7,2 0,2.8l4.9,6.6l-4.9,6.6c-0.7,0.8 -0.7,2 0,2.8c0.4,0.4 0.9,0.6 1.4,0.6c0.5,0 1,-0.2 1.4,-0.6l6.2,-8.1c0.7,-0.6 0.7,-1.8 0,-2.6z"/>
   <path id="svg_10" fill="#FF5A30" d="m12.774976,10.234008l6.2,-8.1c0.4,-0.4 0.9,-0.6 1.4,-0.6c0.5,0 1,0.2 1.4,0.6c0.7,0.8 0.7,2 0,2.8l-4.9,6.6l4.9,6.6c0.7,0.8 0.7,2 0,2.8c-0.4,0.4 -0.9,0.6 -1.4,0.6c-0.5,0 -1,-0.2 -1.4,-0.6l-6.2,-8.1c-0.7,-0.6 -0.7,-1.8 0,-2.6z"/>
  </g>
 </g>
</svg>